<?xml version="1.0" encoding="UTF-8" standalone="no"?>
<svg
   xmlns:dc="http://purl.org/dc/elements/1.1/"
   xmlns:cc="http://creativecommons.org/ns#"
   xmlns:rdf="http://www.w3.org/1999/02/22-rdf-syntax-ns#"
   xmlns:svg="http://www.w3.org/2000/svg"
   xmlns="http://www.w3.org/2000/svg"
   xmlns:sodipodi="http://sodipodi.sourceforge.net/DTD/sodipodi-0.dtd"
   xmlns:inkscape="http://www.inkscape.org/namespaces/inkscape"
   version="1.1"
   id="Layer_1"
   x="0px"
   y="0px"
   viewBox="0 0 368.5 48"
   style="enable-background:new 0 0 368.5 48;"
   xml:space="preserve"
   sodipodi:docname="logo.svg"
   inkscape:version="1.0.1 (3bc2e813f5, 2020-09-07)"><metadata
   id="metadata21"><rdf:RDF><cc:Work
       rdf:about=""><dc:format>image/svg+xml</dc:format><dc:type
         rdf:resource="http://purl.org/dc/dcmitype/StillImage" /><dc:title></dc:title></cc:Work></rdf:RDF></metadata><defs
   id="defs19" /><sodipodi:namedview
   pagecolor="#ffffff"
   bordercolor="#666666"
   borderopacity="1"
   objecttolerance="10"
   gridtolerance="10"
   guidetolerance="10"
   inkscape:pageopacity="0"
   inkscape:pageshadow="2"
   inkscape:window-width="1366"
   inkscape:window-height="715"
   id="namedview17"
   showgrid="false"
   inkscape:zoom="0.99973578"
   inkscape:cx="227.33662"
   inkscape:cy="-27.813097"
   inkscape:window-x="-8"
   inkscape:window-y="-8"
   inkscape:window-maximized="1"
   inkscape:current-layer="text48" />
<style
   type="text/css"
   id="style2">
	.st0{fill:#FFFFFF;}
</style>






<g
   aria-label="KUYCODING"
   id="text48"
   style="font-style:normal;font-weight:normal;font-size:60.3866px;line-height:1.25;font-family:sans-serif;fill:#ececec;fill-opacity:1;stroke:none;stroke-width:1.13225"><path
     d="M 8.8540985,6.7950796 V 21.950701 L 26.044229,4.023429 q 1.238398,-1.2973684 2.093481,-1.9165669 0.88457,-0.6191986 2.329366,-0.6191986 1.887081,0 3.037022,1.1204545 1.179425,1.0909689 1.179425,2.6831937 0,1.9165669 -1.975538,3.8036482 L 22.063667,19.17905 34.329696,36.752495 q 1.297368,1.82811 1.946052,3.213935 0.648684,1.35634 0.648684,2.653708 0,1.444797 -1.14994,2.50628 -1.120454,1.061483 -3.066507,1.061483 -1.82811,0 -2.97805,-0.766627 -1.14994,-0.796112 -1.946053,-2.093481 -0.796112,-1.297368 -1.41531,-2.358851 L 16.01911,25.046694 8.8540985,31.916849 v 8.93415 q 0,2.71268 -1.2383971,4.039534 -1.238397,1.297368 -3.1844496,1.297368 -1.1204545,0 -2.1524521,-0.589713 Q 1.2468022,45.008475 0.68657492,44.005963 0.27377589,43.180365 0.18531896,42.089396 0.09686202,40.998428 0.09686202,38.934432 V 6.7950796 q 0,-2.653708 1.14994018,-3.9805621 1.1794258,-1.326854 3.1844496,-1.326854 1.9755382,0 3.1844496,1.326854 1.2383971,1.2973684 1.2383971,3.9805621 z"
     style="font-style:normal;font-variant:normal;font-weight:normal;font-stretch:normal;font-size:60.3866px;font-family:'Arial Rounded MT Bold';-inkscape-font-specification:'Arial Rounded MT Bold, ';fill:#ffffff;stroke-width:1.13225"
     id="path873" /><path
     d="M 44.797099,27.582459 V 6.7950796 q 0,-2.653708 1.179426,-3.9805621 1.208912,-1.326854 3.154964,-1.326854 2.03451,0 3.213935,1.326854 1.208912,1.3268541 1.208912,3.9805621 V 28.054229 q 0,3.626735 0.796112,6.074043 0.825598,2.417823 2.889593,3.774163 2.063996,1.326854 5.779187,1.326854 5.130502,0 7.253468,-2.712679 2.122967,-2.742165 2.122967,-8.285467 V 6.7950796 q 0,-2.6831937 1.179426,-3.9805621 1.179425,-1.326854 3.154964,-1.326854 1.975538,0 3.184449,1.326854 1.238397,1.2973684 1.238397,3.9805621 V 27.582459 q 0,5.071531 -1.002512,8.46238 -0.973026,3.390849 -3.715191,5.9561 -2.358851,2.181938 -5.48433,3.18445 -3.125478,1.002512 -7.31244,1.002512 -4.983074,0 -8.580322,-1.061483 -3.597249,-1.090969 -5.867644,-3.331878 -2.270394,-2.270395 -3.331877,-5.779186 -1.061484,-3.538278 -1.061484,-8.432895 z"
     style="font-style:normal;font-variant:normal;font-weight:normal;font-stretch:normal;font-size:60.3866px;font-family:'Arial Rounded MT Bold';-inkscape-font-specification:'Arial Rounded MT Bold, ';fill:#ffffff;stroke-width:1.13225"
     id="path875" /><path
     d="M 100.25959,40.850999 V 27.140174 L 89.703731,10.775642 Q 88.317905,8.5642183 87.728193,7.3258212 87.167965,6.0874241 87.167965,5.1733691 q 0,-1.5037679 1.14994,-2.5947367 1.179426,-1.0909689 2.889594,-1.0909689 1.798624,0 2.712679,1.0319976 0.943541,1.0025119 2.801136,4.0395333 L 104.80038,19.680306 112.9679,6.5591944 q 0.73715,-1.2089114 1.2384,-2.0345095 0.50126,-0.825598 1.09097,-1.5332535 0.6192,-0.7371411 1.35634,-1.1204545 0.73714,-0.3833134 1.79862,-0.3833134 1.6512,0 2.74217,1.0909689 1.12045,1.0614832 1.12045,2.4767941 0,1.1499402 -0.56022,2.2998803 -0.56023,1.1499402 -1.91657,3.1844492 l -10.82123,16.600418 v 13.710825 q 0,2.683194 -1.2384,4.010048 -1.2384,1.326854 -3.15496,1.326854 -1.94606,0 -3.15497,-1.297368 -1.20891,-1.326854 -1.20891,-4.039534 z"
     style="font-style:normal;font-variant:normal;font-weight:normal;font-stretch:normal;font-size:60.3866px;font-family:'Arial Rounded MT Bold';-inkscape-font-specification:'Arial Rounded MT Bold, ';fill:#ffffff;stroke-width:1.13225"
     id="path877" /><path
     d="m 163.68322,31.798906 q 0,2.063995 -1.032,4.481818 -1.00251,2.388338 -3.18445,4.717704 -2.18194,2.29988 -5.57279,3.744676 -3.39085,1.444797 -7.90215,1.444797 -3.42033,0 -6.22147,-0.648684 -2.80114,-0.648684 -5.10102,-2.005024 -2.27039,-1.385825 -4.18696,-3.626734 -1.71017,-2.03451 -2.91908,-4.54079 -1.20891,-2.535765 -1.82811,-5.395873 -0.58971,-2.860107 -0.58971,-6.074042 0,-5.21896 1.50377,-9.34695 1.53325,-4.12799 4.36387,-7.0470689 2.83063,-2.9485645 6.63427,-4.481818 3.80365,-1.5332536 8.10856,-1.5332536 5.24844,0 9.34695,2.0934808 4.0985,2.0934808 6.28044,5.1894735 2.18194,3.0665072 2.18194,5.8086722 0,1.503768 -1.06149,2.653708 -1.06148,1.14994 -2.56525,1.14994 -1.68068,0 -2.53576,-0.796112 -0.8256,-0.796113 -1.8576,-2.742165 -1.71017,-3.213936 -4.03953,-4.80616 -2.29988,-1.5922253 -5.69073,-1.5922253 -5.39588,0 -8.60981,4.0985043 -3.18445,4.098505 -3.18445,11.64683 0,5.042045 1.41531,8.403409 1.41531,3.331878 4.01005,4.983074 2.59473,1.651196 6.07404,1.651196 3.77416,0 6.3689,-1.857596 2.62422,-1.887081 3.95108,-5.513815 0.56022,-1.710168 1.38582,-2.771651 0.8256,-1.090969 2.65371,-1.090969 1.56274,0 2.68319,1.090969 1.12046,1.090969 1.12046,2.712679 z"
     style="font-style:normal;font-variant:normal;font-weight:normal;font-stretch:normal;font-size:60.3866px;font-family:'Arial Rounded MT Bold';-inkscape-font-specification:'Arial Rounded MT Bold, ';fill:#ffffff;stroke-width:1.13225"
     id="path879" /><path
     d="m 190.57412,1.4876635 q 6.72273,0 11.52889,2.742165 4.83564,2.7126793 7.31244,7.7547245 2.47679,5.01256 2.47679,11.794258 0,5.01256 -1.35634,9.111064 -1.35634,4.098505 -4.06902,7.106041 -2.71268,3.007535 -6.66375,4.59976 -3.95108,1.592225 -9.05209,1.592225 -5.07154,0 -9.08158,-1.62171 -4.01005,-1.651197 -6.69324,-4.629247 -2.6832,-2.97805 -4.06902,-7.165011 -1.35634,-4.186962 -1.35634,-9.052093 0,-4.983074 1.41531,-9.14055 1.44479,-4.157476 4.15747,-7.0765549 2.71268,-2.9190789 6.60479,-4.4523324 3.8921,-1.5627392 8.84569,-1.5627392 z M 203.01706,23.71984 q 0,-4.747189 -1.53325,-8.226495 -1.53325,-3.479306 -4.39336,-5.248445 -2.83062,-1.7986243 -6.51633,-1.7986243 -2.62422,0 -4.86513,1.0025119 -2.21142,0.9730264 -3.83313,2.8601074 -1.59223,1.887081 -2.53577,4.835646 -0.91405,2.919079 -0.91405,6.575299 0,3.685705 0.91405,6.663755 0.94354,2.978051 2.62422,4.953589 1.71017,1.946052 3.89211,2.919079 2.21142,0.973026 4.83564,0.973026 3.36137,0 6.1625,-1.680682 2.83063,-1.680682 4.48182,-5.189473 1.68068,-3.508792 1.68068,-8.639294 z"
     style="font-style:normal;font-variant:normal;font-weight:normal;font-stretch:normal;font-size:60.3866px;font-family:'Arial Rounded MT Bold';-inkscape-font-specification:'Arial Rounded MT Bold, ';fill:#ffffff;stroke-width:1.13225"
     id="path881" /><path
     d="m 224.80695,2.2248047 h 11.41095 q 4.45233,0 7.63678,0.825598 3.18445,0.8255981 5.77919,3.0959927 6.75221,5.7791866 6.75221,17.5734446 0,3.892105 -0.67817,7.10604 -0.67817,3.213935 -2.09348,5.808672 -1.41531,2.565251 -3.62674,4.599761 -1.73965,1.562739 -3.80364,2.506279 -2.064,0.943541 -4.45234,1.326855 -2.35885,0.383313 -5.3369,0.383313 h -11.41094 q -2.38834,0 -3.59725,-0.707656 -1.20891,-0.737141 -1.59223,-2.034509 -0.35382,-1.326854 -0.35382,-3.420335 V 7.591192 q 0,-2.8306219 1.26788,-4.0985046 1.26788,-1.2678827 4.0985,-1.2678827 z m 3.39085,6.9291265 V 38.492148 h 6.63427 q 2.18194,0 3.42034,-0.117943 1.23839,-0.117942 2.56525,-0.589713 1.32685,-0.47177 2.29988,-1.326854 4.39336,-3.715191 4.39336,-12.79677 0,-6.398385 -1.94605,-9.582834 -1.91657,-3.18445 -4.74719,-4.039533 -2.83062,-0.8845698 -6.84067,-0.8845698 z"
     style="font-style:normal;font-variant:normal;font-weight:normal;font-stretch:normal;font-size:60.3866px;font-family:'Arial Rounded MT Bold';-inkscape-font-specification:'Arial Rounded MT Bold, ';fill:#ffffff;stroke-width:1.13225"
     id="path883" /><path
     d="M 264.43566,40.850999 V 6.7950796 q 0,-2.653708 1.20892,-3.9805621 1.20891,-1.326854 3.12547,-1.326854 1.97554,0 3.18445,1.326854 1.2384,1.2973684 1.2384,3.9805621 V 40.850999 q 0,2.683194 -1.2384,4.010048 -1.20891,1.326854 -3.18445,1.326854 -1.88708,0 -3.12547,-1.326854 -1.20892,-1.35634 -1.20892,-4.010048 z"
     style="font-style:normal;font-variant:normal;font-weight:normal;font-stretch:normal;font-size:60.3866px;font-family:'Arial Rounded MT Bold';-inkscape-font-specification:'Arial Rounded MT Bold, ';fill:#ffffff;stroke-width:1.13225"
     id="path885" /><path
     d="m 294.39308,6.7361083 16.8363,25.4755967 V 6.5002231 q 0,-2.5062798 1.06149,-3.7446768 1.09096,-1.2678828 2.91907,-1.2678828 1.88709,0 2.97805,1.2678828 1.09097,1.238397 1.09097,3.7446768 V 40.497172 q 0,5.690729 -4.7177,5.690729 -1.17943,0 -2.12297,-0.353828 -0.94354,-0.324342 -1.76913,-1.061483 -0.8256,-0.737141 -1.53326,-1.710167 -0.70765,-1.002512 -1.41531,-2.03451 l -16.4235,-25.18074 v 25.328168 q 0,2.476795 -1.14994,3.744677 -1.14994,1.267883 -2.94857,1.267883 -1.85759,0 -2.97805,-1.267883 -1.12045,-1.297368 -1.12045,-3.744677 V 7.8270772 q 0,-2.1229665 0.47177,-3.3318779 0.56023,-1.326854 1.85759,-2.1524521 1.29737,-0.8550837 2.80114,-0.8550837 1.17943,0 2.00502,0.3833134 0.85509,0.3833134 1.47429,1.0319976 0.64868,0.6486842 1.29736,1.6806817 0.67817,1.0319976 1.38583,2.1524521 z"
     style="font-style:normal;font-variant:normal;font-weight:normal;font-stretch:normal;font-size:60.3866px;font-family:'Arial Rounded MT Bold';-inkscape-font-specification:'Arial Rounded MT Bold, ';fill:#ffffff;stroke-width:1.13225"
     id="path887" /><path
     d="m 368.34308,27.877316 v 8.285466 q 0,1.651196 -0.32434,2.653708 -0.32434,0.973026 -1.20891,1.769139 -0.85508,0.796112 -2.21142,1.533253 -3.92159,2.122966 -7.54833,3.095993 -3.62673,0.973026 -7.90215,0.973026 -4.98308,0 -9.08158,-1.533254 -4.09851,-1.533253 -6.9881,-4.452332 -2.88959,-2.919079 -4.45233,-7.076555 -1.53325,-4.157476 -1.53325,-9.287978 0,-5.042045 1.50376,-9.229007 1.50377,-4.186961 4.42285,-7.1060399 2.91908,-2.9190789 7.10604,-4.4523324 4.18696,-1.5627392 9.49438,-1.5627392 4.36387,0 7.72524,1.1794258 3.36136,1.1499402 5.45484,2.9190789 2.09348,1.7691386 3.15497,3.7446768 1.06148,1.975538 1.06148,3.508792 0,1.651196 -1.2384,2.830622 -1.20891,1.14994 -2.91908,1.14994 -0.94354,0 -1.82811,-0.442285 -0.85508,-0.442285 -1.44479,-1.238397 -1.62171,-2.535765 -2.74217,-3.833134 -1.12045,-1.297368 -3.03702,-2.1819375 -1.88708,-0.8845693 -4.83565,-0.8845693 -3.03702,0 -5.42535,1.0614832 -2.38834,1.0319976 -4.09851,3.0370216 -1.68068,1.975538 -2.59474,4.865131 -0.88457,2.889593 -0.88457,6.398385 0,7.607296 3.47931,11.705801 3.50879,4.098505 9.75975,4.098505 3.03702,0 5.69073,-0.796113 2.68319,-0.796112 5.42536,-2.270394 v -7.017584 h -6.7817 q -2.44731,0 -3.71519,-0.737141 -1.2384,-0.737141 -1.2384,-2.50628 0,-1.444796 1.032,-2.388337 1.06148,-0.943541 2.86011,-0.943541 h 9.93666 q 1.82811,0 3.09599,0.324343 1.26788,0.324342 2.03451,1.444796 0.79611,1.120455 0.79611,3.361364 z"
     style="font-style:normal;font-variant:normal;font-weight:normal;font-stretch:normal;font-size:60.3866px;font-family:'Arial Rounded MT Bold';-inkscape-font-specification:'Arial Rounded MT Bold, ';fill:#ffffff;stroke-width:1.13225"
     id="path889" /></g></svg>
