<?xml version="1.0" encoding="UTF-8" standalone="no"?>
<svg
   xmlns:dc="http://purl.org/dc/elements/1.1/"
   xmlns:cc="http://creativecommons.org/ns#"
   xmlns:rdf="http://www.w3.org/1999/02/22-rdf-syntax-ns#"
   xmlns:svg="http://www.w3.org/2000/svg"
   xmlns="http://www.w3.org/2000/svg"
   xmlns:sodipodi="http://sodipodi.sourceforge.net/DTD/sodipodi-0.dtd"
   xmlns:inkscape="http://www.inkscape.org/namespaces/inkscape"
   version="1.1"
   id="Layer_1"
   x="0px"
   y="0px"
   viewBox="0 0 41.3 48.1"
   style="enable-background:new 0 0 41.3 48.1;"
   xml:space="preserve"
   sodipodi:docname="logo-mini.svg"
   inkscape:version="1.0.1 (3bc2e813f5, 2020-09-07)"><metadata
   id="metadata11"><rdf:RDF><cc:Work
       rdf:about=""><dc:format>image/svg+xml</dc:format><dc:type
         rdf:resource="http://purl.org/dc/dcmitype/StillImage" /></cc:Work></rdf:RDF></metadata><defs
   id="defs9" /><sodipodi:namedview
   pagecolor="#ffffff"
   bordercolor="#666666"
   borderopacity="1"
   objecttolerance="10"
   gridtolerance="10"
   guidetolerance="10"
   inkscape:pageopacity="0"
   inkscape:pageshadow="2"
   inkscape:window-width="1366"
   inkscape:window-height="715"
   id="namedview7"
   showgrid="false"
   inkscape:zoom="16"
   inkscape:cx="1.8042506"
   inkscape:cy="1.4943911"
   inkscape:window-x="-8"
   inkscape:window-y="-8"
   inkscape:window-maximized="1"
   inkscape:current-layer="text838" />
<style
   type="text/css"
   id="style2">
	.st0{fill:#FFFFFF;}
</style>

<g
   aria-label="K"
   id="text838"
   style="font-style:normal;font-weight:normal;font-size:64.9526px;line-height:1.25;font-family:sans-serif;fill:#ffffff;fill-opacity:1;stroke:none;stroke-width:1.62382"><path
     d="m 9.605186,5.715093 v 16.30158 L 28.09511,2.7338702 q 1.332036,-1.395466 2.251775,-2.06148383 0.951454,-0.66601786 2.505495,-0.66601786 2.029769,0 3.266659,1.20517519 1.268606,1.17346 1.268606,2.8860774 0,2.0614838 -2.124914,4.0912525 L 23.813567,19.03545 37.007063,37.937671 q 1.395466,1.966339 2.093199,3.45695 0.697733,1.458896 0.697733,2.854362 0,1.554042 -1.23689,2.695787 -1.205175,1.141745 -3.298374,1.141745 -1.966339,0 -3.203229,-0.824594 -1.23689,-0.856308 -2.093199,-2.251774 -0.856309,-1.395466 -1.522326,-2.537211 L 17.311964,25.346762 9.605186,32.736389 v 9.609686 q 0,2.917793 -1.332036,4.344974 -1.3320356,1.395466 -3.4252346,1.395466 -1.2051752,0 -2.315205,-0.634303 Q 1.4226807,46.817909 0.8200931,45.739595 0.3760812,44.851571 0.2809358,43.678111 0.1857904,42.504651 0.1857904,40.284591 V 5.715093 q 0,-2.8543622 1.2368903,-4.2815434 1.2686054,-1.42718109 3.4252347,-1.42718109 2.1249141,0 3.4252346,1.42718109 1.332036,1.395466 1.332036,4.2815434 z"
     style="font-style:normal;font-variant:normal;font-weight:normal;font-stretch:normal;font-family:'Arial Rounded MT Bold';-inkscape-font-specification:'Arial Rounded MT Bold, ';fill:#ffffff;stroke-width:1.62382"
     id="path840" /></g></svg>
